<svg width="18px" height="18px" viewBox="0 0 18 18" xmlns="http://www.w3.org/2000/svg">
<g id="SPLINE">
	<path stroke="#000000" stroke-width="0" stroke-linecap="round" stroke-linejoin="round" stroke-miterlimit="10" d="M10.29,0.452
		c0.763,0,1.445,0.473,1.714,1.187l0.473,1.256c1.172,0,2.344,0,3.515,0c1.012,0,1.832,0.82,1.832,1.831v10.99
		c0,1.011-0.82,1.832-1.832,1.832c-4.661,0-9.322,0-13.982,0c-1.012,0-1.833-0.821-1.833-1.832V4.726
		c0-1.011,0.821-1.831,1.833-1.831c1.172,0,2.343,0,3.515,0l0.469-1.256c0.267-0.714,0.95-1.187,1.715-1.187
		C8.568,0.452,9.429,0.452,10.29,0.452z"/>
</g>
<g id="SPLINE_1_">
	
		<path fill="#FFFFFF" stroke="#040000" stroke-width="0" stroke-linecap="round" stroke-linejoin="round" stroke-miterlimit="10" d="
		M12.664,10.222c0-2.022-1.643-3.664-3.664-3.664S5.337,8.2,5.337,10.222c0,2.021,1.642,3.663,3.663,3.663
		S12.664,12.242,12.664,10.222z"/>
</g>
<g id="SPLINE_2_">
	<path stroke="#000000" stroke-width="0" stroke-linecap="round" stroke-linejoin="round" stroke-miterlimit="10" d="M11.687,10.222
		c0,1.48-1.205,2.686-2.687,2.686c-1.48,0-2.687-1.205-2.687-2.686C6.313,8.74,7.52,7.535,9,7.535
		C10.481,7.535,11.687,8.74,11.687,10.222z"/>
</g>
</svg>
